<?xml version="1.0" standalone="no"?><!DOCTYPE svg PUBLIC "-//W3C//DTD SVG 1.1//EN"
  "http://www.w3.org/Graphics/SVG/1.1/DTD/svg11.dtd">
<svg t="1558488373113" class="icon" style="" viewBox="0 0 1024 1024" version="1.1" xmlns="http://www.w3.org/2000/svg"
     p-id="830" xmlns:xlink="http://www.w3.org/1999/xlink" width="128" height="128">
  <defs>
    <style type="text/css"></style>
  </defs>
  <path
    d="M831.959707 123.707486l-7.088442-10.636245L214.930629 113.071242l-7.137561 9.109472C52.391742 320.618205 73.850473 441.436898 100.521926 495.836879c26.670429 54.492078 80.763418 89.75521 137.862881 89.75521l5.118578 0c71.983451-2.862187 119.832226-38.59604 145.072073-64.49285 22.773679 25.897833 65.620533 60.502979 132.745327 60.502979 69.940932 0 113.609501-37.682227 135.445832-63.837934 30.54262 24.886807 90.13281 65.668629 152.558581 65.668629 40.995693 0 76.025511-16.787338 104.619756-49.867758C1019.949242 410.117588 839.659063 135.329175 831.959707 123.707486zM834.025763 612.710726c-13.288654 0-24.064069 10.751878-24.111141 24.01802l0 0.048095c0 0.046049 0 0.046049 0 0.094144 0 0 0 0.021489 0 0.047072l0 173.375699c0 26.669406-21.62246 48.269353-48.225351 48.269353L555.05919 858.56311c-0.023536 0-0.023536 0-0.047072 0L267.287067 858.56311c-26.600845 0-48.224328-21.598924-48.224328-48.269353L219.062739 636.799354c-0.023536-13.313214-10.82351-24.088628-24.088628-24.088628-13.31219 0-24.066115 10.775414-24.112164 24.088628L170.861948 815.127855c0 50.664913 40.992623 91.705632 91.612511 91.705632l504.029468 0c50.617841 0 91.610464-41.040718 91.610464-91.705632L858.11439 636.728746C858.043782 623.462604 847.314417 612.710726 834.025763 612.710726z"
    p-id="831"></path>
</svg>
