<?xml version="1.0" standalone="no"?><!DOCTYPE svg PUBLIC "-//W3C//DTD SVG 1.1//EN" "http://www.w3.org/Graphics/SVG/1.1/DTD/svg11.dtd"><svg class="icon" width="128px" height="128.00px" viewBox="0 0 1024 1024" version="1.1" xmlns="http://www.w3.org/2000/svg"><path d="M279.518 339.007h372c8.561 0 15.5-6.939 15.5-15.5s-6.939-15.5-15.5-15.5h-372c-8.561 0-15.5 6.939-15.5 15.5s6.939 15.5 15.5 15.5z m511.5 62V106.513l-65.1 62.001-65.1-62.001-65.1 62.001-65.099-62.001-65.1 62.001-65.1-62-65.1 62-65.099-62.001-65.1 62.001-65.1-62v805.987l65.1-62 65.1 62.001 65.099-62.001 65.1 62 65.1-62 65.1 62.001 65.099-62.001 65.1 62.001 65.1-62.001 65.1 62.001V742.007h93v-341h-93z m-3.101-248.005l0.006 0.006h-0.011l0.005-0.006z m0 713.012l-0.007-0.007h0.013l-0.006 0.007z m65.101-155.007h-93c-8.561 0-15.5 6.939-15.5 15.5s6.939 15.5 15.5 15.5v97.435l-37.2-35.429-65.1 62.001-65.099-62.001-65.1 62.001-65.1-62-65.1 62-65.099-62.001-65.1 62.001-65.1-62.001-31 29.524v-648.06l31 29.524 65.1-62 65.1 62 65.099-62 65.1 61.999 65.1-61.999 65.1 62 65.099-62 65.1 62 37.2-35.428v221.434h-403v31h-77.5c-8.561 0-15.5 6.939-15.5 15.5s6.939 15.5 15.5 15.5h77.5v93h-77.5c-8.561 0-15.5 6.939-15.5 15.5s6.939 15.5 15.5 15.5h77.5v93h-77.5c-8.561 0-15.5 6.939-15.5 15.5s6.939 15.5 15.5 15.5h77.5v31h217c8.561 0 15.5-6.939 15.5-15.5s-6.939-15.5-15.5-15.5h-186v-279h465v279z m-325.5-93h77.546v44.854c0 9.514 6.899 17.228 15.408 17.228 8.512 0 15.409-7.714 15.409-17.228v-44.854h77.636c8.561 0 15.5-6.939 15.5-15.5s-6.939-15.5-15.5-15.5h-77.636v-31h62.136c8.561 0 15.5-6.939 15.5-15.5s-6.939-15.5-15.5-15.5h-40.08l26.46-26.46c6.053-6.053 6.053-15.867 0-21.92s-15.867-6.053-21.92 0l-41.96 41.96-41.96-41.96c-6.053-6.053-15.868-6.053-21.921 0-6.053 6.053-6.053 15.867 0 21.92l26.461 26.46h-40.08c-8.561 0-15.5 6.939-15.5 15.5s6.939 15.5 15.5 15.5h62.046v31h-77.546c-8.561 0-15.5 6.939-15.5 15.5 0.001 8.561 6.94 15.5 15.501 15.5z m170.5 93h-31c-8.561 0-15.5 6.939-15.5 15.5s6.939 15.5 15.5 15.5h31c8.561 0 15.5-6.939 15.5-15.5 0-8.56-6.94-15.5-15.5-15.5z" fill="#ffffff" /></svg>